<?xml version="1.0" encoding="UTF-8" standalone="no"?><!-- Generator: Gravit.io --><svg xmlns="http://www.w3.org/2000/svg" xmlns:xlink="http://www.w3.org/1999/xlink" style="isolation:isolate" viewBox="0 0 108 108" width="108pt" height="108pt"><defs><clipPath id="_clipPath_5ibFn1qvppfzobeihHVrZ6swuOsurOBe"><rect width="108" height="108"/></clipPath></defs><g clip-path="url(#_clipPath_5ibFn1qvppfzobeihHVrZ6swuOsurOBe)"><rect width="108" height="108" style="fill:rgb(112,154,193)" fill-opacity="0"/><g><path d=" M 70.506 38.389 L 108 72.466 L 108 108 L 77 108 L 35.066 72.466 L 38.373 63.769 L 36.268 50.216 L 43.335 44.523 L 51.841 34.578 L 63.096 42.478 L 68.586 42.478 L 70.506 38.389 Z " fill="rgb(0,0,0)" fill-opacity="0.12"/><path d=" M 28.979 53.708 L 47.736 67.31 L 38.373 58.563 L 36.268 51.52 L 28.979 53.708 Z " fill="rgb(0,0,0)" fill-opacity="0.12"/></g><path d=" M 77.131 54.24 L 72.878 54.24 L 72.878 72.415 L 56.339 72.415 L 56.339 64.85 L 62.931 58.511 L 64.609 58.784 C 67.349 58.784 69.57 56.649 69.57 54.013 C 69.57 51.378 67.349 49.242 64.609 49.242 C 61.868 49.242 59.647 51.378 59.647 54.013 L 59.883 55.626 L 56.339 59.079 L 56.339 46.63 C 57.898 45.812 58.938 44.244 58.938 42.427 C 58.938 39.792 56.717 37.656 53.976 37.656 C 51.236 37.656 49.015 39.792 49.015 42.427 C 49.015 44.244 50.054 45.812 51.614 46.63 L 51.614 59.079 L 48.07 55.626 L 48.306 54.013 C 48.306 51.378 46.084 49.242 43.344 49.242 C 40.604 49.242 38.383 51.378 38.383 54.013 C 38.383 56.648 40.604 58.784 43.344 58.784 L 45.022 58.511 L 51.614 64.85 L 51.614 72.415 L 35.075 72.415 L 35.075 54.24 L 30.94 54.24 C 29.948 54.24 28.979 54.24 28.979 53.763 C 29.003 53.263 29.995 52.309 31.011 51.332 L 51.614 31.522 C 52.393 30.772 53.197 30 53.976 30 C 54.756 30 55.559 30.772 56.339 31.522 L 65.79 40.609 L 65.79 38.338 L 70.515 38.338 L 70.515 45.153 L 77.084 51.469 C 78.029 52.377 78.997 53.309 79.021 53.786 C 79.021 54.24 78.076 54.24 77.131 54.24 Z  M 43.344 51.969 C 43.908 51.969 44.449 52.184 44.848 52.567 C 45.247 52.951 45.471 53.471 45.471 54.013 C 45.471 54.555 45.247 55.076 44.848 55.459 C 44.449 55.842 43.908 56.058 43.344 56.058 C 42.78 56.058 42.239 55.842 41.841 55.459 C 41.442 55.076 41.218 54.555 41.218 54.013 C 41.218 53.471 41.442 52.951 41.841 52.567 C 42.239 52.184 42.78 51.969 43.344 51.969 Z  M 64.609 51.969 C 65.79 51.969 66.735 52.877 66.735 54.013 C 66.735 55.149 65.79 56.058 64.609 56.058 C 64.045 56.058 63.504 55.842 63.105 55.459 C 62.706 55.076 62.482 54.555 62.482 54.013 C 62.482 53.471 62.706 52.951 63.105 52.567 C 63.504 52.184 64.045 51.969 64.609 51.969 Z  M 53.976 40.382 C 55.158 40.382 56.103 41.291 56.103 42.427 C 56.103 43.563 55.158 44.472 53.976 44.472 C 52.795 44.472 51.85 43.563 51.85 42.427 C 51.85 41.291 52.795 40.382 53.976 40.382 Z " fill="rgb(255,255,255)"/></g></svg>