<?xml version="1.0" encoding="UTF-8" standalone="no"?><!-- Generator: Gravit.io --><svg xmlns="http://www.w3.org/2000/svg" xmlns:xlink="http://www.w3.org/1999/xlink" style="isolation:isolate" viewBox="0 0 512 512" width="512pt" height="512pt"><defs><clipPath id="_clipPath_wSm2gq78824Wp66cqyazQcLvYNPCHkOD"><rect width="512" height="512"/></clipPath></defs><g clip-path="url(#_clipPath_wSm2gq78824Wp66cqyazQcLvYNPCHkOD)"><rect width="512" height="512" style="fill:rgb(112,154,193)" fill-opacity="0"/><g><path d=" M 383.477 134.924 L 672.91 397.984 L 672.91 672.285 L 433.606 672.285 L 109.895 397.984 L 135.43 330.847 L 119.174 226.225 L 173.731 182.275 L 239.391 105.507 L 326.273 166.491 L 368.658 166.491 L 383.477 134.924 Z " fill="rgb(0,0,0)" fill-opacity="0.12"/><path d=" M 62.91 253.182 L 207.701 358.179 L 135.43 290.655 L 119.174 236.29 L 62.91 253.182 Z " fill="rgb(0,0,0)" fill-opacity="0.12"/></g><path d=" M 434.558 257.702 L 401.728 257.702 L 401.728 398 L 274.056 398 L 274.056 339.601 L 324.943 290.672 L 337.892 292.776 C 359.049 292.776 376.194 276.291 376.194 255.948 C 376.194 235.605 359.049 219.12 337.892 219.12 C 316.739 219.12 299.591 235.608 299.591 255.948 L 301.415 268.399 L 274.056 295.056 L 274.056 198.952 C 286.094 192.638 294.119 180.538 294.119 166.508 C 294.119 146.168 276.971 129.68 255.818 129.68 C 234.664 129.68 217.516 146.168 217.516 166.508 C 217.516 180.538 225.541 192.638 237.579 198.952 L 237.579 295.056 L 210.221 268.399 L 212.045 255.948 C 212.045 235.608 194.896 219.12 173.743 219.12 C 152.59 219.12 135.442 235.608 135.442 255.948 C 135.442 276.288 152.59 292.776 173.743 292.776 L 186.693 290.672 L 237.579 339.601 L 237.579 398 L 109.907 398 L 109.907 257.702 L 77.99 257.702 C 70.329 257.702 62.851 257.702 62.851 254.019 C 63.034 250.161 70.694 242.795 78.537 235.254 L 237.579 82.329 C 243.598 76.542 249.799 70.579 255.818 70.579 C 261.836 70.579 268.038 76.542 274.056 82.329 L 347.011 152.478 L 347.011 134.941 L 383.489 134.941 L 383.489 187.553 L 434.193 236.306 C 441.488 243.321 448.966 250.511 449.149 254.194 C 449.149 257.702 441.853 257.702 434.558 257.702 Z  M 173.743 240.164 C 178.097 240.164 182.272 241.827 185.35 244.787 C 188.429 247.747 190.158 251.762 190.158 255.948 C 190.158 260.134 188.429 264.149 185.35 267.109 C 182.272 270.069 178.097 271.732 173.743 271.732 C 169.39 271.732 165.214 270.069 162.136 267.109 C 159.058 264.149 157.328 260.134 157.328 255.948 C 157.328 251.762 159.058 247.747 162.136 244.787 C 165.214 241.827 169.39 240.164 173.743 240.164 Z  M 337.892 240.164 C 347.011 240.164 354.307 247.179 354.307 255.948 C 354.307 264.717 347.011 271.732 337.892 271.732 C 333.539 271.732 329.363 270.069 326.285 267.109 C 323.207 264.149 321.477 260.134 321.477 255.948 C 321.477 251.762 323.207 247.747 326.285 244.787 C 329.363 241.827 333.539 240.164 337.892 240.164 Z  M 255.818 150.724 C 264.937 150.724 272.233 157.739 272.233 166.508 C 272.233 175.276 264.937 182.291 255.818 182.291 C 246.698 182.291 239.403 175.276 239.403 166.508 C 239.403 157.739 246.698 150.724 255.818 150.724 Z " fill="rgb(255,255,255)"/></g></svg>